<?xml version="1.0" standalone="no"?>
<!DOCTYPE svg PUBLIC "-//W3C//DTD SVG 20010904//EN"
 "http://www.w3.org/TR/2001/REC-SVG-20010904/DTD/svg10.dtd">
<svg version="1.0" xmlns="http://www.w3.org/2000/svg"
 width="400.000000pt" height="400.000000pt" viewBox="0 0 400.000000 400.000000"
 preserveAspectRatio="xMidYMid meet">
<metadata>
Created by potrace 1.14, written by Peter Selinger 2001-2017
</metadata>
<g transform="translate(0.000000,400.000000) scale(0.100000,-0.100000)"
fill="#000000" stroke="none">
<path d="M0 3545 l0 -454 68 -43 c37 -24 117 -72 177 -108 87 -51 132 -87 216
-170 58 -58 122 -130 143 -160 28 -40 36 -48 32 -29 -3 15 -9 72 -12 127 l-7
101 -89 128 c-82 117 -180 230 -266 306 -30 28 -34 28 -51 13 -20 -18 -57 -21
-66 -6 -4 7 2 9 19 4 30 -7 36 11 7 21 -11 3 -23 15 -26 25 -3 10 -22 24 -41
30 -20 7 -33 14 -30 17 7 7 76 -17 76 -27 0 -16 31 -40 51 -40 30 0 22 18 -21
45 -22 14 -40 30 -40 37 0 6 10 3 21 -8 l22 -19 -13 25 c-7 14 -26 40 -43 58
-44 46 -17 40 32 -8 22 -22 45 -40 50 -40 5 0 28 -26 52 -57 24 -32 82 -96
130 -143 47 -47 118 -131 156 -187 l70 -102 7 72 c3 40 14 134 23 210 15 121
16 140 3 161 -8 13 -73 74 -145 136 -195 168 -279 253 -315 321 -30 56 -32 66
-28 140 l3 79 -82 0 -83 0 0 -455z"/>
<path d="M240 3988 c351 -152 440 -259 440 -529 0 -104 0 -106 30 -134 53 -50
100 -129 130 -214 l28 -82 11 52 c54 248 66 369 40 369 -16 0 -30 51 -35 122
l-4 67 32 9 c41 11 46 6 69 -60 22 -62 25 -124 6 -131 -9 -3 -14 -25 -14 -64
-1 -63 -20 -175 -59 -348 l-25 -109 20 -176 c11 -96 27 -238 36 -315 22 -215
84 -422 131 -444 15 -6 23 -16 19 -24 -4 -6 3 -1 14 12 12 13 21 37 21 56 0
24 7 39 26 54 34 27 59 27 84 -1 12 -13 30 -32 41 -44 11 -12 19 -27 18 -35
-5 -26 39 -97 63 -101 29 -4 94 -96 79 -111 -26 -26 -4 -97 30 -97 11 0 22 -8
26 -17 3 -10 13 -26 21 -35 8 -9 12 -22 10 -29 -2 -6 11 -26 28 -43 32 -32 33
-33 27 -108 -3 -43 -1 -83 4 -93 10 -18 155 -53 286 -70 29 -4 78 -14 110 -22
53 -14 59 -14 75 1 21 18 53 21 68 6 14 -14 254 91 327 142 21 15 25 23 17 33
-7 8 -7 33 -1 77 11 80 5 122 -18 113 -9 -4 -37 -9 -63 -12 -64 -8 -101 15
-96 59 3 26 10 33 52 50 27 10 68 30 91 44 42 24 43 26 33 58 -9 29 -7 41 18
87 29 54 29 54 77 53 l48 0 -7 40 c-20 113 1 176 59 176 31 0 104 -37 159 -82
15 -12 30 -19 33 -16 3 3 21 43 40 89 47 118 44 163 -18 248 -55 76 -123 227
-138 305 -12 69 2 163 35 222 l23 41 -24 47 c-13 26 -21 51 -18 56 3 4 -6 22
-20 38 -13 16 -21 33 -17 37 4 5 2 5 -5 1 -13 -7 -79 22 -69 31 3 3 12 0 20
-6 22 -18 37 -4 31 27 l-5 27 10 -24 c6 -14 16 -31 22 -39 10 -12 13 -11 19 5
6 14 8 11 8 -12 1 -24 49 -116 74 -142 4 -3 98 55 116 73 2 2 -8 21 -21 42
-106 159 -167 393 -137 519 20 81 67 170 126 233 l55 60 -1373 -1 c-996 0
-1367 -3 -1349 -11z m1801 -466 c175 -49 278 -169 400 -464 39 -96 69 -153 92
-177 66 -69 71 -105 32 -216 -31 -88 -31 -107 1 -174 56 -121 42 -180 -62
-256 -121 -90 -177 -163 -219 -293 -14 -44 -22 -54 -45 -58 -27 -6 -28 -8 -34
-93 -3 -47 -2 -113 3 -146 5 -33 6 -63 2 -67 -6 -7 -277 -33 -348 -32 -64 0
-78 20 -92 135 -14 119 -31 171 -73 212 -18 18 -49 62 -68 97 -44 83 -148 186
-224 224 -141 69 -178 139 -141 262 22 73 19 99 -22 171 -46 84 -49 133 -10
191 21 33 27 53 27 99 0 110 27 250 61 313 60 112 197 215 352 266 95 30 269
33 368 6z m600 -206 c0 13 3 11 9 -7 4 -14 15 -38 25 -52 25 -39 16 -33 -40
25 -31 32 -40 44 -22 33 26 -17 27 -17 28 1z m258 -1048 c-12 -24 -30 -65 -40
-93 -10 -27 -18 -42 -18 -32 -1 20 64 167 74 167 3 0 -4 -19 -16 -42z"/>
<path d="M1708 3504 c-96 -23 -194 -79 -267 -152 -56 -57 -115 -137 -117 -160
0 -4 -4 -23 -8 -42 -9 -36 -14 -79 -23 -183 l-5 -59 24 13 c12 6 25 15 28 19
14 18 80 61 80 52 0 -11 -88 -92 -101 -92 -4 0 -24 -23 -45 -52 -48 -65 -48
-91 -1 -191 42 -88 43 -102 21 -192 -9 -36 -14 -75 -10 -89 10 -42 53 -83 131
-125 41 -23 104 -69 140 -103 54 -50 75 -79 111 -155 30 -61 51 -93 62 -94 32
-2 107 0 314 7 l206 7 12 46 c27 108 103 212 212 288 109 76 120 113 68 218
-37 76 -37 106 1 216 19 55 28 97 24 110 -4 12 -43 58 -86 102 -76 77 -98 111
-84 125 4 4 11 -1 16 -11 6 -9 14 -17 19 -17 13 0 -63 178 -112 262 -51 85
-160 206 -204 224 -99 42 -295 55 -406 28z m-28 -663 c0 -5 -25 -11 -55 -13
-59 -5 -94 -24 -129 -72 -17 -22 -21 -42 -21 -99 0 -116 40 -167 137 -174 137
-11 208 98 147 224 -12 25 -37 60 -56 79 -35 35 -34 42 4 21 33 -19 82 -85 93
-128 22 -81 -35 -177 -130 -218 -49 -21 -53 -22 -100 -6 -89 29 -136 109 -128
215 5 74 40 129 100 159 43 21 138 30 138 12z m590 4 c0 -2 -20 -13 -44 -24
-54 -24 -96 -83 -103 -144 -9 -76 56 -170 124 -183 18 -3 33 -10 33 -15 0 -14
-63 2 -101 26 -38 24 -89 111 -89 149 0 64 63 166 114 186 23 9 66 13 66 5z
m87 -45 c49 -36 83 -100 83 -156 0 -45 -34 -110 -69 -133 -24 -15 -24 -15 4
26 63 96 37 205 -65 276 -16 11 -19 17 -9 17 8 0 34 -14 56 -30z m-334 -432
c39 -52 72 -137 59 -150 -9 -9 -15 -4 -23 20 -19 54 -53 115 -71 126 -24 15
-73 -33 -106 -104 -21 -45 -27 -51 -30 -32 -4 28 31 102 68 142 38 40 72 40
103 -2z"/>
<path d="M1842 1873 c-75 -3 -83 -6 -77 -21 23 -52 45 -154 45 -202 0 -88 7
-93 115 -75 50 8 129 15 177 15 l88 0 -7 33 c-9 43 -10 151 -1 210 l8 47 -133
-2 c-72 -1 -170 -4 -215 -5z"/>
<path d="M2973 3953 c-70 -69 -100 -112 -129 -184 -52 -130 -23 -329 75 -505
52 -93 59 -98 111 -84 l41 11 -6 57 c-4 31 -7 87 -8 124 -2 59 -6 71 -32 100
-22 23 -23 27 -6 13 24 -20 24 -20 16 0 -4 11 -9 31 -12 45 -2 14 3 8 11 -13
16 -43 32 -63 24 -31 -3 12 -2 27 2 34 4 6 9 -23 12 -67 2 -43 10 -87 16 -98
6 -11 14 -50 17 -87 6 -63 8 -68 30 -68 36 0 173 29 243 51 l62 21 0 73 c0 64
-2 74 -19 80 -11 3 -30 28 -43 55 -13 26 -31 50 -40 53 -9 3 -20 17 -24 32 -5
22 -2 31 14 44 l21 16 -22 62 c-22 62 -17 94 8 59 8 -10 22 -40 31 -67 19 -52
21 -54 43 -40 12 8 11 17 -7 61 -23 56 -27 80 -13 80 14 0 29 -22 48 -75 10
-28 25 -50 33 -51 8 -1 22 -2 31 -2 18 -2 34 -46 23 -64 -4 -6 -6 -38 -5 -71
2 -50 -1 -61 -18 -74 -18 -12 -21 -25 -21 -79 0 -35 4 -64 9 -64 22 0 135 87
181 138 60 67 95 135 112 214 12 57 5 122 -32 296 l-12 52 -358 0 -359 0 -48
-47z"/>
<path d="M3754 3983 c25 -87 48 -244 43 -299 -10 -128 -119 -285 -259 -371
l-56 -35 -17 -76 c-9 -43 -27 -124 -41 -181 -13 -57 -23 -105 -22 -107 2 -1
28 13 58 32 124 80 297 155 468 204 l72 21 0 414 0 415 -126 0 c-115 0 -125
-1 -120 -17z"/>
<path d="M206 3964 c-12 -30 -6 -115 10 -147 45 -88 78 -121 378 -382 l79 -68
-5 119 c-7 160 -28 215 -119 307 -56 56 -86 76 -190 127 -68 33 -129 60 -135
60 -7 0 -15 -7 -18 -16z"/>
<path d="M904 3634 c-6 -3 -9 -15 -7 -27 4 -19 10 -23 34 -19 30 4 33 9 23 36
-6 15 -27 19 -50 10z"/>
<path d="M3403 3602 c-29 -8 -53 -19 -53 -25 0 -5 7 -6 16 -3 9 4 37 11 63 18
49 12 78 29 46 27 -11 -1 -44 -8 -72 -17z"/>
<path d="M3433 3558 l-52 -20 22 -45 c19 -39 24 -43 47 -38 37 9 41 17 38 72
l-3 50 -52 -19z"/>
<path d="M912 3562 c-7 -5 -11 -15 -8 -23 2 -8 7 -27 11 -42 5 -24 10 -28 33
-25 17 2 28 10 30 22 3 14 0 17 -12 13 -9 -4 -16 -2 -16 3 0 6 5 10 10 10 6 0
10 11 10 25 0 19 -5 25 -22 25 -13 0 -29 -4 -36 -8z"/>
<path d="M192 3350 c13 -21 38 -35 38 -21 0 9 -33 41 -43 41 -4 0 -2 -9 5 -20z"/>
<path d="M670 3265 c0 -22 -4 -66 -10 -98 -5 -31 -14 -112 -20 -178 l-11 -121
59 -92 c33 -50 69 -109 80 -131 24 -47 19 -61 53 149 20 123 21 147 10 200
-22 105 -67 207 -115 261 l-45 50 -1 -40z"/>
<path d="M3377 3238 c-26 -10 -93 -25 -150 -35 -56 -9 -105 -19 -109 -22 -4
-4 -2 -41 5 -82 12 -74 13 -78 64 -121 50 -42 107 -107 116 -131 9 -24 35 18
55 88 25 87 76 315 71 319 -2 1 -25 -6 -52 -16z"/>
<path d="M3025 3166 l-39 -11 44 -43 c44 -42 45 -43 48 -19 2 14 -1 38 -5 54
-8 30 -9 30 -48 19z"/>
<path d="M2910 3113 c-14 -9 -37 -27 -52 -41 -24 -22 -25 -27 -13 -46 42 -65
71 -194 110 -495 8 -63 17 -116 19 -118 5 -6 39 43 66 97 25 49 49 245 50 409
l0 83 -67 64 c-38 35 -73 63 -78 64 -6 0 -22 -7 -35 -17z"/>
<path d="M3890 3095 c-175 -54 -282 -103 -426 -196 -79 -52 -94 -65 -108 -103
-18 -46 -13 -101 8 -92 6 3 36 12 66 21 30 9 102 34 160 56 96 35 298 96 378
113 l32 8 0 109 c0 126 7 121 -110 84z"/>
<path d="M2 2968 c1 -59 2 -63 5 -23 2 28 10 55 18 61 11 8 10 12 -6 22 -18
12 -19 9 -17 -60z"/>
<path d="M58 2999 c6 -7 12 -32 12 -55 0 -24 4 -45 9 -48 5 -4 14 -29 20 -58
9 -41 9 -55 -3 -73 -14 -21 -12 -26 21 -76 20 -30 49 -68 66 -86 l30 -32 96 6
c86 5 190 -4 260 -24 l24 -6 -19 32 c-25 42 -156 186 -211 231 -43 36 -329
212 -305 189z"/>
<path d="M2793 2999 c-44 -55 -56 -208 -23 -304 31 -90 85 -196 122 -239 l34
-39 -3 39 c-7 75 -44 320 -59 389 -9 39 -25 92 -37 119 -18 39 -25 46 -34 35z"/>
<path d="M26 2993 c-3 -3 -6 -24 -6 -45 0 -27 4 -38 15 -38 11 0 15 11 15 39
0 38 -10 57 -24 44z"/>
<path d="M3129 2888 c0 -46 -4 -120 -7 -165 -4 -46 -4 -83 0 -83 5 0 8 4 8 9
0 5 32 43 70 84 39 41 70 79 70 85 0 16 -76 108 -109 132 l-31 21 -1 -83z"/>
<path d="M7 2883 c-10 -10 -8 -83 2 -83 5 0 14 7 22 16 7 9 22 14 36 11 26 -5
27 0 13 37 -7 20 -17 26 -38 26 -16 0 -32 -3 -35 -7z"/>
<path d="M3975 2855 c-5 -2 -71 -20 -145 -40 -74 -21 -139 -42 -145 -48 -7 -7
-4 -8 8 -3 10 3 84 6 163 6 l144 0 0 45 c0 43 -3 48 -25 40z"/>
<path d="M30 2795 c-7 -9 -9 -22 -4 -32 7 -16 8 -15 11 5 5 24 28 30 36 10 2
-7 7 -10 11 -7 12 11 -6 39 -24 39 -10 0 -23 -7 -30 -15z"/>
<path d="M861 2795 c-1 -5 -8 -53 -16 -105 -19 -123 -19 -187 1 -241 31 -86
114 -329 114 -334 0 -4 -4 -4 -9 -1 -5 4 -7 -4 -3 -16 5 -21 6 -21 12 -2 7 18
8 18 14 -4 4 -13 10 -22 12 -20 2 3 -5 29 -16 58 -34 93 -58 228 -80 445 -19
192 -27 248 -29 220z"/>
<path d="M635 2710 c14 -166 18 -179 87 -245 l63 -59 3 41 c2 30 -6 62 -28
113 -32 73 -86 170 -115 205 -15 19 -15 15 -10 -55z"/>
<path d="M3239 2712 c-48 -49 -109 -126 -109 -136 0 -3 29 15 64 40 51 35 68
54 82 89 9 25 15 47 12 50 -2 2 -25 -17 -49 -43z"/>
<path d="M3680 2750 c-77 -5 -96 -11 -200 -61 l-116 -56 -2 -86 -1 -87 69 36
c142 72 238 94 483 110 l87 6 0 74 0 74 -117 -2 c-65 -1 -156 -5 -203 -8z"/>
<path d="M0 2691 c0 -33 3 -66 6 -75 5 -13 116 -56 146 -56 5 0 -6 19 -25 43
-19 23 -45 61 -57 85 -19 37 -45 62 -64 62 -3 0 -6 -27 -6 -59z"/>
<path d="M3381 2699 c-13 -5 -21 -12 -18 -15 3 -3 18 1 34 10 31 17 21 20 -16
5z"/>
<path d="M3300 2648 c-12 -22 -12 -22 6 -6 10 10 15 20 12 24 -4 3 -12 -5 -18
-18z"/>
<path d="M3191 2599 c-70 -45 -89 -67 -93 -110 -2 -21 -3 -39 -2 -39 1 0 31
30 66 66 54 56 85 101 76 109 -2 1 -23 -11 -47 -26z"/>
<path d="M3283 2572 c-17 -15 -53 -69 -79 -122 -84 -166 -86 -173 -26 -120 18
16 55 43 82 60 55 36 63 56 58 152 l-3 57 -32 -27z"/>
<path d="M0 2525 c0 -33 1 -34 26 -25 29 11 78 46 54 37 -9 -2 -24 1 -35 9
-32 23 -45 17 -45 -21z"/>
<path d="M3719 2549 c-79 -10 -188 -48 -279 -95 -88 -47 -93 -52 -115 -109
-11 -27 -21 -53 -23 -57 -2 -5 28 -8 66 -8 130 0 353 -53 547 -130 41 -16 78
-30 80 -30 3 0 5 99 5 220 l0 220 -107 -1 c-60 -1 -138 -5 -174 -10z"/>
<path d="M267 2533 c-4 -3 30 -19 76 -34 158 -53 222 -81 323 -143 l41 -25
-25 69 c-23 66 -27 71 -76 95 -28 13 -82 29 -121 35 -80 11 -208 13 -218 3z"/>
<path d="M128 2504 c-10 -3 -18 -9 -18 -14 0 -13 209 -219 250 -246 37 -25
447 -151 457 -140 6 6 -101 72 -227 140 -109 58 -168 97 -340 229 -35 27 -88
40 -122 31z"/>
<path d="M53 2468 c-13 -6 -23 -14 -23 -19 0 -24 106 -107 192 -150 54 -27 99
-49 102 -49 2 0 -49 52 -113 115 -63 63 -120 115 -126 114 -5 0 -20 -5 -32
-11z"/>
<path d="M345 2453 c38 -38 150 -111 263 -172 72 -40 130 -77 126 -82 -3 -5 1
-6 9 -3 8 3 35 -11 61 -30 25 -20 46 -33 46 -28 -1 17 -100 112 -160 153 -98
68 -137 89 -230 124 -47 18 -94 36 -105 40 -13 5 -17 5 -10 -2z"/>
<path d="M3114 2403 c-27 -33 -44 -67 -55 -112 -10 -37 -15 -68 -13 -70 2 -2
14 20 26 50 12 30 37 82 55 117 18 34 31 62 29 62 -2 0 -21 -21 -42 -47z"/>
<path d="M0 2348 l0 -86 52 -47 c109 -98 259 -166 442 -200 71 -13 96 -14 143
-5 31 7 103 12 160 13 57 0 103 1 103 3 0 9 -60 32 -100 39 -25 4 -85 19 -135
35 -49 15 -106 31 -125 34 -30 6 -25 1 30 -28 36 -19 61 -35 56 -36 -5 0 -47
20 -95 44 -47 25 -129 61 -181 82 -182 70 -244 109 -322 206 l-27 33 -1 -87z
m715 -298 c2 -4 -7 -5 -20 -2 -14 2 -27 8 -30 12 -2 4 7 5 20 2 14 -2 27 -8
30 -12z m58 -7 c-7 -2 -21 -2 -30 0 -10 3 -4 5 12 5 17 0 24 -2 18 -5z m54 1
c-3 -3 -12 -4 -19 -1 -8 3 -5 6 6 6 11 1 17 -2 13 -5z"/>
<path d="M3011 2371 c-38 -74 -40 -99 -5 -47 25 37 48 96 39 104 -2 2 -17 -23
-34 -57z"/>
<path d="M690 2408 c0 -14 33 -85 48 -100 30 -35 31 -17 1 35 -31 52 -49 76
-49 65z"/>
<path d="M3229 2317 c-87 -66 -125 -97 -117 -97 18 0 125 46 136 60 18 22 44
71 40 75 -2 2 -29 -15 -59 -38z"/>
<path d="M780 2341 c0 -5 7 -15 17 -22 15 -13 15 -12 4 9 -12 23 -21 28 -21
13z"/>
<path d="M2977 2217 c-31 -64 -33 -75 -12 -57 9 7 18 10 22 7 3 -4 -7 -12 -24
-19 -22 -9 -28 -18 -24 -30 5 -13 9 -14 22 -5 8 7 18 20 22 31 5 12 13 16 25
12 15 -5 15 -4 1 6 -13 9 -15 18 -7 45 17 62 4 68 -25 10z"/>
<path d="M3280 2256 c-18 -18 -11 -22 40 -25 190 -8 428 -133 542 -284 46 -60
67 -74 116 -76 22 -1 22 1 22 117 l0 118 -99 37 c-139 51 -292 95 -391 113
-94 16 -213 17 -230 0z"/>
<path d="M3200 2240 c-13 -8 -12 -10 3 -10 9 0 17 5 17 10 0 12 -1 12 -20 0z"/>
<path d="M0 2102 l0 -139 47 -14 c85 -25 241 -18 377 16 l118 29 -67 13 c-152
28 -304 96 -412 183 l-63 51 0 -139z"/>
<path d="M870 2213 c1 -18 22 -53 33 -53 8 0 -13 59 -24 66 -5 3 -9 -3 -9 -13z"/>
<path d="M3213 2182 c-26 -24 -67 -57 -90 -74 -50 -34 -54 -42 -15 -27 15 7
83 14 152 16 201 9 326 -25 419 -112 39 -36 66 -51 127 -70 43 -13 79 -23 81
-21 7 7 -98 125 -142 159 -109 84 -276 151 -412 165 l-71 8 -49 -44z"/>
<path d="M3125 2209 c-4 -6 -14 -8 -22 -5 -8 3 -12 2 -9 -3 3 -4 -8 -18 -24
-30 -17 -12 -30 -27 -30 -33 0 -6 -8 -20 -17 -31 -29 -33 82 31 131 75 l41 37
-32 1 c-17 0 -35 -5 -38 -11z"/>
<path d="M2633 2171 c-30 -49 1 -91 65 -91 42 0 123 -39 182 -89 36 -30 55
-39 98 -43 56 -5 92 -29 92 -60 0 -13 6 -18 16 -16 24 4 56 51 49 70 -4 9 -38
26 -78 38 -96 30 -126 46 -245 130 -111 79 -159 95 -179 61z"/>
<path d="M2987 2116 c-4 -10 -5 -21 -2 -24 9 -9 17 6 13 25 -3 17 -4 17 -11
-1z"/>
<path d="M2875 2110 c-3 -6 1 -7 9 -4 18 7 21 14 7 14 -6 0 -13 -4 -16 -10z"/>
<path d="M1178 2079 c-13 -7 -18 -23 -18 -54 0 -27 -5 -47 -14 -52 -13 -8
-156 -253 -156 -267 0 -4 -11 -24 -25 -44 -29 -43 -30 -46 -9 -66 20 -20 54
-21 54 -1 0 8 17 25 38 39 48 30 55 41 70 100 22 85 72 194 112 243 l39 46
-27 33 c-29 36 -37 39 -64 23z"/>
<path d="M2948 2083 c7 -3 16 -2 19 1 4 3 -2 6 -13 5 -11 0 -14 -3 -6 -6z"/>
<path d="M2628 2029 c4 -43 5 -43 43 -53 25 -5 27 -3 31 35 4 43 3 44 -47 52
-30 6 -30 5 -27 -34z"/>
<path d="M2975 2050 c-3 -5 -2 -10 4 -10 5 0 13 5 16 10 3 6 2 10 -4 10 -5 0
-13 -4 -16 -10z"/>
<path d="M3468 2034 c46 -13 97 -31 114 -40 16 -8 32 -13 35 -10 9 8 -60 39
-132 57 -102 27 -114 22 -17 -7z"/>
<path d="M2730 2006 c0 -39 3 -44 27 -49 16 -3 32 1 40 9 16 16 27 19 18 5 -3
-5 -1 -12 4 -15 5 -3 11 1 15 9 3 9 12 12 21 8 13 -5 14 -7 3 -14 -9 -6 -9 -9
-1 -9 6 0 14 4 18 9 7 12 -25 30 -43 24 -8 -3 -16 4 -19 16 -5 20 -49 51 -73
51 -5 0 -10 -20 -10 -44z"/>
<path d="M3114 2040 c-90 -10 -96 -19 -28 -47 32 -13 62 -29 66 -36 16 -26 7
-59 -26 -92 -26 -26 -36 -46 -41 -82 -18 -122 -38 -190 -79 -267 -24 -44 -65
-142 -89 -216 -25 -74 -48 -142 -52 -151 -4 -12 1 -18 20 -23 15 -4 34 -20 43
-36 9 -17 20 -30 23 -30 12 0 20 67 13 108 -14 86 46 172 118 172 21 0 57 -9
80 -19 24 -11 60 -23 81 -26 61 -10 80 -36 75 -104 -4 -59 -2 -54 -107 -198
-41 -57 -77 -151 -164 -438 -107 -347 -116 -381 -127 -450 -6 -38 -13 -78 -16
-87 -5 -17 26 -18 545 -18 l551 0 0 513 0 513 -48 50 c-82 85 -122 227 -122
434 0 151 -30 256 -101 355 -18 25 -36 45 -41 45 -5 0 -50 18 -101 39 -98 42
-279 89 -362 94 -27 2 -77 0 -111 -3z"/>
<path d="M1005 2030 c-3 -5 1 -10 10 -10 9 0 13 5 10 10 -3 6 -8 10 -10 10 -2
0 -7 -4 -10 -10z"/>
<path d="M930 2008 c0 -2 9 -11 20 -21 11 -9 20 -13 20 -7 0 5 -9 14 -20 20
-11 6 -20 9 -20 8z"/>
<path d="M1015 2000 c3 -5 11 -10 16 -10 6 0 7 5 4 10 -3 6 -11 10 -16 10 -6
0 -7 -4 -4 -10z"/>
<path d="M760 1989 c-52 -4 -156 -21 -230 -39 -74 -17 -164 -38 -200 -45 -100
-22 -216 -18 -312 11 -16 5 -18 -3 -18 -65 l0 -70 58 -12 c35 -7 100 -9 172
-6 135 6 195 24 353 103 59 30 113 54 120 54 22 -1 -227 -120 -292 -140 -118
-37 -300 -44 -393 -14 -17 5 -18 -7 -18 -195 l0 -201 39 0 c66 0 193 28 248
55 33 17 81 57 135 112 155 162 209 213 219 207 5 -3 8 -1 7 4 -4 14 135 123
150 117 6 -2 12 -1 12 4 0 11 78 40 118 43 17 1 32 3 32 4 0 15 -25 64 -33 65
-7 1 -22 3 -33 4 -12 1 -25 4 -30 6 -5 3 -52 2 -104 -2z m110 -43 c0 -2 -16
-6 -35 -8 -19 -2 -35 0 -35 4 0 4 16 8 35 8 19 0 35 -2 35 -4z m-100 -16 c-34
-11 -60 -11 -35 0 11 5 29 8 40 8 16 0 15 -2 -5 -8z m163 3 c-7 -2 -19 -2 -25
0 -7 3 -2 5 12 5 14 0 19 -2 13 -5z"/>
<path d="M993 1986 c4 -9 2 -16 -2 -16 -5 0 -11 -7 -14 -14 -4 -11 -1 -13 11
-9 15 6 16 5 2 -13 -14 -18 -14 -18 3 -5 10 8 15 21 12 29 -3 10 0 12 10 8 20
-7 19 -4 -7 18 -18 15 -20 16 -15 2z"/>
<path d="M1252 1964 c-19 -27 -19 -27 2 -64 l20 -37 22 27 c22 26 23 28 6 63
-9 20 -20 36 -24 37 -3 0 -15 -12 -26 -26z"/>
<path d="M2530 1971 c0 -5 8 -11 18 -13 13 -3 10 -7 -13 -18 -38 -19 -57 -67
-32 -84 13 -11 31 -10 89 1 99 20 202 10 311 -27 68 -24 91 -28 107 -20 23 12
25 23 9 52 -10 19 -9 20 10 15 23 -6 26 0 11 23 -7 11 -34 15 -122 16 -113 2
-237 22 -302 49 -40 17 -86 20 -86 6z"/>
<path d="M1040 1939 c1 -7 2 -23 1 -34 -1 -17 -3 -18 -12 -5 -8 11 -9 9 -3
-10 6 -21 4 -23 -7 -13 -20 16 -131 -6 -202 -41 -71 -34 -119 -76 -292 -252
-77 -78 -160 -156 -184 -173 -58 -41 -153 -70 -257 -78 l-84 -6 0 -663 0 -664
625 0 c529 0 625 2 625 14 0 8 -38 88 -84 178 -46 89 -111 227 -146 305 -89
204 -194 384 -246 422 -75 54 -97 92 -102 179 -6 108 5 142 54 169 48 27 175
39 235 23 53 -15 113 -70 132 -122 9 -26 17 -91 20 -163 4 -85 11 -140 27
-190 22 -67 164 -399 215 -500 l25 -50 -5 145 c-8 195 -28 320 -62 377 -29 50
-33 104 -11 147 14 28 13 32 -30 110 -55 100 -185 292 -269 399 -35 44 -63 88
-63 98 0 9 -8 31 -17 48 -17 29 -17 32 -1 58 9 16 35 63 58 106 32 61 38 81
30 97 -15 28 -12 38 6 15 14 -19 15 -19 20 3 4 12 11 22 16 22 6 0 8 6 5 14
-3 8 -1 16 5 18 6 2 3 10 -7 18 -14 12 -16 12 -15 -1z"/>
<path d="M1206 1892 c-15 -29 -15 -32 -1 -32 10 0 14 5 10 13 -4 6 1 3 9 -7
20 -25 21 -43 2 -27 -11 9 -16 9 -22 0 -4 -7 -3 -9 4 -5 6 3 13 2 16 -3 7 -12
-30 -25 -44 -16 -5 3 -10 2 -10 -2 0 -5 8 -13 18 -20 16 -9 23 -6 46 23 l27
34 -19 37 -19 37 -17 -32z"/>
<path d="M1329 1888 c-8 -7 -31 -33 -51 -58 -56 -70 -186 -199 -219 -215 -29
-15 -39 -48 -19 -60 6 -3 10 -1 10 6 0 7 9 3 20 -9 39 -42 92 -20 125 51 25
53 94 127 162 173 32 21 60 40 63 42 3 2 -6 12 -20 22 -14 10 -25 27 -25 37 0
22 -25 28 -46 11z"/>
<path d="M3796 1839 c50 -79 64 -142 74 -324 10 -183 20 -248 45 -309 20 -48
65 -116 76 -116 5 0 9 142 9 316 l0 315 -40 59 c-38 56 -44 60 -109 80 -37 11
-71 20 -75 20 -3 0 6 -19 20 -41z"/>
<path d="M2557 1826 c-34 -10 -37 -13 -25 -29 15 -21 96 -38 83 -18 -4 7 -10
23 -14 35 -6 21 -9 22 -44 12z"/>
<path d="M2637 1804 l18 -36 55 5 c30 3 66 9 80 12 14 4 30 7 36 7 6 1 9 9 7
19 -5 19 -34 25 -140 28 l-73 2 17 -37z"/>
<path d="M3060 1825 c0 -9 -14 -24 -30 -33 -27 -15 -30 -22 -28 -57 3 -36 0
-41 -29 -55 -33 -15 -42 -33 -23 -45 16 -10 11 -51 -9 -76 -16 -20 -29 -24
-72 -24 l-52 0 -11 -45 c-7 -25 -24 -68 -40 -95 -36 -66 -49 -136 -36 -204 14
-77 31 -106 59 -106 22 0 29 15 91 195 69 204 87 244 127 297 15 21 31 67 44
125 10 51 21 103 24 116 3 12 1 22 -5 22 -5 0 -10 -7 -10 -15z"/>
<path d="M3966 1790 c15 -22 28 -40 30 -40 2 0 4 18 4 40 0 38 -2 40 -30 40
l-30 0 26 -40z"/>
<path d="M2845 1810 c3 -5 10 -10 16 -10 5 0 9 5 9 10 0 6 -7 10 -16 10 -8 0
-12 -4 -9 -10z"/>
<path d="M2403 1756 c-46 -23 -83 -44 -83 -49 0 -14 44 -24 88 -19 37 4 42 7
42 29 0 32 17 63 35 63 8 0 15 5 15 10 0 14 -3 12 -97 -34z"/>
<path d="M2855 1768 c-69 -23 -250 -36 -305 -21 -19 5 -43 7 -52 5 -22 -4 -24
-47 -4 -59 8 -4 16 -21 18 -38 3 -29 5 -30 58 -33 71 -4 223 24 275 51 22 11
60 21 85 21 l45 1 0 40 c0 62 -19 67 -120 33z"/>
<path d="M1175 1770 c-3 -5 -11 -7 -18 -4 -8 3 -13 -3 -13 -15 0 -10 5 -17 11
-15 11 5 39 44 31 44 -3 0 -7 -4 -11 -10z"/>
<path d="M1382 1767 c-11 -13 -5 -87 7 -87 3 0 14 6 23 14 15 11 16 18 6 49
-12 40 -19 44 -36 24z"/>
<path d="M1303 1708 c-16 -18 -43 -51 -59 -73 -16 -22 -35 -46 -41 -53 -19
-20 -16 -27 5 -10 9 8 25 18 35 21 11 4 15 12 11 18 -4 8 -3 9 4 5 18 -11 37
4 21 16 -10 6 -7 7 9 3 24 -7 29 3 10 25 -7 8 -4 7 8 -3 20 -17 22 -17 41 0
17 15 19 23 12 51 -5 17 -13 32 -17 32 -5 0 -22 -15 -39 -32z m35 -32 c-7 -8
-15 -12 -17 -11 -5 6 10 25 20 25 5 0 4 -6 -3 -14z"/>
<path d="M1443 1680 c-12 -5 -46 -25 -74 -45 -29 -20 -86 -52 -127 -72 -73
-35 -90 -51 -77 -74 6 -8 10 -8 16 2 6 11 12 10 27 -4 27 -24 49 -21 127 18
91 45 162 95 171 119 9 28 -34 67 -63 56z"/>
<path d="M2864 1654 c-30 -21 -153 -46 -264 -53 l-95 -6 -3 -33 c-4 -38 12
-62 39 -62 10 0 60 14 110 31 74 25 109 31 173 31 105 -1 124 15 94 81 -15 30
-24 32 -54 11z"/>
<path d="M1484 1567 c-11 -7 -36 -24 -55 -39 -19 -15 -56 -37 -82 -48 -50 -22
-63 -50 -24 -50 12 0 28 -9 35 -20 15 -25 32 -19 105 42 32 26 68 53 80 59 12
7 23 13 25 14 2 2 -4 15 -13 29 -19 28 -39 32 -71 13z"/>
<path d="M970 1541 c0 -4 30 -44 66 -87 81 -98 220 -305 269 -402 28 -54 45
-76 69 -87 17 -8 38 -20 48 -27 58 -42 66 104 16 309 -22 89 -37 133 -47 133
-19 0 -111 43 -111 52 0 5 -13 8 -28 8 -32 0 -112 36 -112 50 0 6 -8 10 -18
10 -9 0 -38 11 -64 25 -47 25 -88 33 -88 16z"/>
<path d="M2705 1520 c-164 -50 -179 -57 -159 -68 14 -8 19 -22 20 -56 0 -25
-3 -43 -8 -40 -5 3 -15 1 -23 -6 -9 -8 -15 -8 -20 0 -4 6 -3 10 2 9 20 -3 27
2 13 12 -12 8 -10 9 8 4 34 -10 28 12 -14 48 -20 17 -23 16 -78 -17 -32 -19
-111 -56 -176 -81 l-119 -47 17 -27 c9 -14 17 -28 19 -30 1 -2 29 12 60 31
102 63 269 122 248 88 -3 -5 1 -23 10 -40 13 -25 19 -29 30 -20 8 7 19 9 25 5
5 -3 10 -1 10 4 0 6 5 11 12 11 6 0 4 -7 -5 -18 -22 -24 -21 -31 3 -25 11 3
18 9 15 13 -3 5 -1 11 5 15 6 4 7 11 4 17 -4 6 -2 8 4 4 6 -3 13 -2 16 3 9 14
-20 21 -33 8 -8 -8 -11 -7 -11 5 0 9 9 19 20 23 11 3 19 9 18 13 -3 14 14 42
23 36 8 -4 13 8 11 27 -1 3 5 6 11 6 7 0 13 -9 13 -19 0 -10 -4 -18 -9 -18 -4
0 -5 -5 -2 -10 4 -6 12 -7 19 -3 7 4 4 0 -6 -9 -11 -9 -18 -19 -16 -22 2 -2
-7 -16 -19 -29 -12 -14 -19 -28 -16 -30 11 -11 -29 -56 -45 -50 -13 4 -14 3
-3 -5 11 -8 8 -17 -15 -48 l-29 -37 30 7 c17 4 43 14 58 21 26 13 28 13 23 -1
-5 -12 -2 -15 10 -10 8 3 19 6 24 6 5 0 9 32 9 71 0 58 5 83 30 133 51 106 72
166 58 165 -6 0 -39 -9 -72 -19z m12 -60 c0 -19 -4 -27 -10 -21 -5 5 -6 18 -2
30 9 29 12 26 12 -9z m-96 -23 c-10 -9 -11 -8 -5 6 3 10 9 15 12 12 3 -3 0
-11 -7 -18z m-21 -37 c-8 -5 -17 -7 -19 -4 -3 3 1 9 9 14 8 5 17 7 19 4 3 -3
-1 -9 -9 -14z m-51 -98 c-21 -15 -32 -11 -35 13 -1 8 4 15 12 15 9 0 12 -4 9
-10 -3 -5 -1 -10 4 -10 6 0 11 8 11 18 0 14 2 15 9 2 7 -10 4 -18 -10 -28z"/>
<path d="M1533 1485 c-15 -11 -23 -28 -25 -57 -3 -48 -25 -63 -31 -21 -4 27
-5 27 -12 6 -4 -13 -16 -23 -26 -23 -20 0 -26 -15 -10 -24 5 -3 14 -28 21 -56
7 -30 17 -50 26 -50 8 0 14 -5 14 -11 0 -5 -4 -7 -10 -4 -13 8 -12 -8 5 -80 8
-33 15 -88 15 -122 l0 -62 35 2 c19 1 35 3 35 5 0 3 -39 159 -47 186 -4 13 -1
16 7 11 9 -6 11 -4 5 6 -5 7 -10 20 -11 29 -1 8 -6 26 -10 40 -7 23 -6 24 10
11 9 -8 15 -19 13 -25 -4 -12 23 -46 38 -46 5 0 19 -12 29 -27 11 -14 13 -23
6 -18 -9 5 -11 4 -6 -3 4 -7 13 -12 20 -12 8 0 32 -24 55 -54 32 -41 47 -53
61 -49 29 8 25 18 -25 59 -24 21 -42 41 -40 45 3 4 -4 9 -15 12 -12 3 -18 11
-15 19 3 8 -2 21 -12 29 -16 13 -17 12 -4 -4 18 -23 8 -33 -13 -11 -12 12 -14
20 -6 29 9 11 25 3 78 -37 37 -27 81 -63 98 -80 l32 -30 53 27 c61 31 119 72
119 85 0 14 -170 49 -283 58 -97 7 -106 6 -110 -10 -3 -10 -13 -18 -24 -17
-14 0 -15 2 -3 7 8 4 15 14 15 22 0 25 238 18 335 -9 70 -19 76 -19 88 -4 6 9
12 20 12 24 0 12 -58 28 -140 39 -41 5 -121 20 -178 31 -77 16 -106 19 -115
10 -6 -6 -17 -11 -25 -11 -12 0 -12 3 -2 15 10 12 10 24 1 55 -7 22 -9 56 -5
75 7 40 6 41 -23 20z m-53 -155 c0 -5 -2 -10 -4 -10 -3 0 -8 5 -11 10 -3 6 -1
10 4 10 6 0 11 -4 11 -10z m84 -71 c-6 -11 -24 -2 -24 11 0 5 7 7 15 4 8 -4
12 -10 9 -15z"/>
<path d="M2623 1363 c4 -3 1 -13 -6 -21 -8 -11 -8 -14 0 -9 6 4 14 1 16 -5 3
-7 6 -1 6 15 1 15 -4 27 -11 27 -6 0 -8 -3 -5 -7z"/>
<path d="M2405 1301 c-72 -26 -215 -100 -215 -111 0 -10 91 -40 121 -40 14 0
93 81 148 153 16 21 10 21 -54 -2z"/>
<path d="M3028 1279 l-31 -30 6 -118 c6 -117 -3 -175 -17 -109 -7 30 -10 22
-36 -78 -39 -146 -83 -273 -127 -359 l-35 -70 -5 -258 -6 -257 47 0 c37 0 46
3 47 18 0 9 2 26 4 37 2 11 6 40 10 65 17 121 229 776 277 855 17 28 44 65 59
83 63 72 88 162 53 196 -16 17 -49 22 -39 7 15 -25 -18 -18 -66 14 -67 44
-101 45 -141 4z"/>
<path d="M2055 1258 c-26 -31 -27 -35 -19 -98 4 -36 8 -128 8 -205 1 -128 3
-143 24 -177 13 -21 25 -38 27 -38 2 0 29 52 59 115 l56 115 -16 38 c-8 20
-19 74 -24 120 -16 147 -59 196 -115 130z"/>
<path d="M2456 1243 c-22 -26 -31 -31 -38 -21 -6 9 -8 7 -4 -8 4 -13 -1 -27
-14 -39 -25 -22 -26 -35 -2 -35 11 0 32 23 56 65 21 36 37 67 35 69 -2 2 -17
-12 -33 -31z"/>
<path d="M743 1247 c-35 -24 -38 -39 -34 -162 2 -62 16 -82 115 -165 42 -36
87 -81 99 -100 68 -101 96 -150 89 -150 -5 0 -30 29 -56 64 -65 88 -85 102
-33 24 23 -36 67 -118 97 -184 30 -65 100 -211 156 -324 56 -113 105 -215 109
-227 5 -20 13 -23 57 -23 l51 0 -6 99 c-5 84 -11 108 -36 157 -53 101 -192
415 -228 514 -31 84 -36 111 -42 230 -6 110 -12 143 -30 178 -26 50 -68 79
-130 88 -38 6 -54 2 -98 -21 -58 -30 -80 -28 -42 4 33 28 3 26 -38 -2z"/>
<path d="M2521 1261 c-10 -6 -9 -10 3 -14 8 -3 18 -2 21 3 8 13 -9 20 -24 11z"/>
<path d="M1545 1170 c-4 -6 1 -7 12 -4 16 5 16 4 2 -8 -16 -13 -15 -38 2 -38
4 0 6 6 3 14 -3 8 -1 17 5 21 6 3 11 10 11 16 0 12 -27 12 -35 -1z"/>
<path d="M1977 1123 c-8 -10 -41 -31 -71 -48 -31 -16 -56 -33 -56 -36 0 -3 11
-16 24 -28 30 -29 56 -24 109 19 36 31 45 57 31 94 -8 21 -17 20 -37 -1z"/>
<path d="M2199 1098 c5 -39 9 -43 37 -46 25 -2 33 2 44 25 8 15 16 31 18 34 1
4 -10 9 -25 12 -15 3 -40 9 -54 12 -25 7 -25 6 -20 -37z"/>
<path d="M2638 1133 c-31 -5 -68 -46 -68 -75 0 -10 11 -45 24 -77 23 -52 24
-68 21 -172 -5 -116 -1 -114 25 14 12 62 32 70 24 9 -27 -205 -98 -497 -183
-744 l-30 -88 143 0 143 0 6 243 c7 248 16 326 63 527 23 96 77 218 104 235
18 11 11 43 -16 74 -32 39 -46 39 -62 1 -7 -16 -23 -32 -34 -36 -27 -8 -69 23
-87 64 -14 32 -19 33 -73 25z m105 -92 c21 -23 43 -41 48 -41 5 0 9 -5 9 -11
0 -22 -46 4 -87 49 -70 78 -43 80 30 3z"/>
<path d="M2524 1112 c-6 -4 -15 -22 -19 -41 -6 -30 -5 -32 10 -23 23 12 49 72
32 72 -7 0 -17 -4 -23 -8z"/>
<path d="M2331 1081 c-27 -38 -26 -41 7 -41 22 0 32 7 45 35 17 35 17 35 -7
35 -16 0 -32 -11 -45 -29z"/>
<path d="M2435 1070 c-10 -11 -16 -22 -13 -25 3 -3 13 6 22 20 20 30 16 32 -9
5z"/>
<path d="M2214 1024 c3 -8 6 -18 6 -20 0 -2 5 -4 10 -4 16 0 11 27 -6 34 -12
5 -15 2 -10 -10z"/>
<path d="M2508 1018 c-14 -12 -38 -68 -38 -89 0 -11 81 -11 98 0 11 6 9 17 -9
54 -25 51 -28 53 -51 35z"/>
<path d="M1753 1012 c-9 -6 -6 -18 14 -45 14 -20 30 -37 35 -37 9 0 48 18 57
26 3 3 -8 18 -24 34 -28 29 -58 37 -82 22z"/>
<path d="M1978 985 l-48 -32 28 -26 28 -27 23 45 c33 66 25 76 -31 40z"/>
<path d="M2276 995 c-19 -29 -20 -42 -4 -47 17 -6 69 55 55 64 -21 13 -34 9
-51 -17z"/>
<path d="M2376 974 c-24 -51 -12 -55 14 -5 11 23 17 41 12 41 -5 0 -16 -16
-26 -36z"/>
<path d="M1655 963 c3 -10 9 -30 12 -46 7 -32 14 -39 32 -28 10 7 8 17 -10 50
-24 41 -47 57 -34 24z"/>
<path d="M2892 925 c-34 -57 -52 -113 -72 -225 -6 -36 -13 -74 -16 -85 -4 -17
-3 -17 5 -4 15 24 123 349 119 360 -2 5 -18 -15 -36 -46z"/>
<path d="M1500 953 c1 -5 15 -17 33 -28 18 -11 36 -30 42 -43 5 -12 17 -22 27
-22 15 0 14 5 -5 50 -20 48 -23 50 -59 50 -21 0 -38 -3 -38 -7z"/>
<path d="M2420 940 c-6 -11 -7 -20 -2 -20 6 0 12 9 15 20 3 11 3 20 1 20 -2 0
-8 -9 -14 -20z"/>
<path d="M1330 921 c-18 -34 -11 -79 19 -134 36 -62 93 -216 87 -231 -2 -6
-13 9 -25 34 -11 25 -19 36 -16 25 10 -41 25 -314 25 -462 l0 -153 80 0 c44 0
80 2 80 4 0 2 -8 64 -17 138 -12 100 -16 205 -15 423 0 160 -1 297 -4 306 -7
25 -51 40 -94 33 -51 -8 -94 2 -86 21 8 22 -22 18 -34 -4z"/>
<path d="M1852 923 c-35 -7 -36 -27 -6 -72 14 -23 28 -41 31 -41 2 0 17 10 33
22 l29 21 -27 38 c-15 21 -29 38 -32 37 -3 0 -15 -3 -28 -5z"/>
<path d="M2255 920 c3 -5 8 -10 11 -10 2 0 4 5 4 10 0 6 -5 10 -11 10 -5 0 -7
-4 -4 -10z"/>
<path d="M2545 900 c-11 -5 -34 -9 -52 -9 -30 -1 -33 -5 -49 -56 -10 -30 -15
-57 -12 -60 9 -9 38 -7 96 6 l52 12 0 58 c0 61 -2 63 -35 49z"/>
<path d="M2202 855 c-12 -25 -20 -45 -18 -45 5 0 56 75 56 83 0 20 -19 2 -38
-38z"/>
<path d="M2331 863 c-8 -21 -16 -44 -18 -50 -3 -7 -1 -13 4 -13 6 0 15 17 22
38 7 20 15 43 17 50 3 6 2 12 -3 12 -5 0 -15 -17 -22 -37z"/>
<path d="M1760 887 c-1 -20 52 -107 66 -107 13 0 13 4 -3 30 -23 39 -62 87
-63 77z"/>
<path d="M2011 874 c0 -11 3 -14 6 -6 3 7 2 16 -1 19 -3 4 -6 -2 -5 -13z"/>
<path d="M2382 840 c-12 -28 -17 -52 -11 -55 9 -6 26 30 36 78 8 42 -2 32 -25
-23z"/>
<path d="M1701 861 c-12 -8 -12 -17 -1 -58 19 -70 30 -89 41 -72 7 11 9 11 9
1 0 -10 3 -10 14 0 11 11 10 21 -11 68 -29 66 -34 72 -52 61z"/>
<path d="M2275 860 c-3 -5 -1 -10 4 -10 6 0 11 5 11 10 0 6 -2 10 -4 10 -3 0
-8 -4 -11 -10z"/>
<path d="M1587 833 c-4 -8 -6 -41 -11 -303 -3 -128 17 -517 27 -527 2 -2 72
-2 154 -1 l150 3 -32 80 c-57 143 -154 447 -175 553 -7 34 -17 62 -22 62 -5 0
-6 -5 -2 -12 4 -7 3 -8 -5 -4 -9 6 -9 11 -1 21 8 10 4 28 -20 74 -27 55 -51
75 -63 54z m23 -153 c0 -5 -2 -10 -4 -10 -3 0 -8 5 -11 10 -3 6 -1 10 4 10 6
0 11 -4 11 -10z"/>
<path d="M1913 795 c-20 -19 -20 -22 -6 -50 9 -17 22 -38 31 -47 8 -10 12 -18
8 -18 -3 0 4 -21 17 -47 14 -27 30 -66 37 -87 l13 -40 20 40 c47 91 49 102 27
121 -11 10 -20 24 -20 33 0 13 -2 13 -9 1 -7 -11 -10 -8 -13 13 l-3 27 -22
-20 c-12 -12 -29 -21 -38 -21 -10 0 -4 10 17 29 l33 29 -20 28 c-26 34 -44 36
-72 9z"/>
<path d="M2191 740 l-51 -80 29 -57 c33 -66 30 -69 66 74 42 170 33 183 -44
63z"/>
<path d="M2297 763 c-7 -39 -1 -40 11 -4 6 17 7 31 3 31 -5 0 -11 -12 -14 -27z"/>
<path d="M1835 760 c3 -5 2 -10 -3 -10 -4 0 20 -71 54 -157 35 -87 65 -167 69
-178 5 -18 7 -18 21 9 14 26 14 32 -1 75 -26 70 -128 271 -138 271 -4 0 -5 -4
-2 -10z m60 -110 c3 -5 1 -10 -4 -10 -6 0 -11 5 -11 10 0 6 2 10 4 10 3 0 8
-4 11 -10z"/>
<path d="M2346 738 c-27 -63 -45 -114 -73 -201 -25 -80 -26 -91 -14 -135 6
-26 16 -50 20 -55 4 -4 22 65 40 154 18 88 30 163 27 166 -3 3 1 12 9 20 8 8
15 23 15 33 0 10 3 25 6 34 12 31 -17 15 -30 -16z"/>
<path d="M2525 761 c-3 -2 -26 -6 -52 -8 -27 -2 -51 -7 -54 -11 -3 -4 -18 -63
-33 -132 -16 -69 -39 -174 -53 -234 l-25 -109 21 -96 c26 -112 29 -130 30
-153 1 -13 9 -18 30 -18 28 0 31 4 60 93 30 93 111 374 111 388 0 4 -8 10 -17
12 -16 4 -16 5 -1 6 20 1 26 20 29 91 2 38 -1 54 -9 53 -7 -2 -12 1 -12 7 0 6
7 10 15 10 11 0 15 12 15 45 0 25 -1 48 -2 52 -3 7 -46 11 -53 4z m-35 -111
c0 -5 -2 -10 -4 -10 -3 0 -8 5 -11 10 -3 6 -1 10 4 10 6 0 11 -4 11 -10z m45
-10 c-3 -5 -12 -7 -20 -3 -21 7 -19 13 6 13 11 0 18 -4 14 -10z"/>
<path d="M1765 721 c-3 -6 -11 -9 -16 -6 -20 13 -7 -27 28 -87 44 -75 113
-178 119 -178 3 0 3 3 1 8 -2 4 -26 61 -52 127 -50 125 -67 155 -80 136z"/>
<path d="M2089 489 c-14 -114 -11 -134 44 -272 l32 -82 6 155 6 155 -30 73
c-16 39 -33 72 -37 72 -4 0 -14 -46 -21 -101z"/>
<path d="M1763 559 c3 -9 15 -53 27 -98 13 -46 45 -146 72 -224 58 -168 58
-169 47 -183 -6 -7 -4 -16 4 -22 10 -9 13 -5 11 18 -1 22 3 30 14 31 14 0 13
2 -2 8 -13 5 -16 10 -9 14 7 4 15 2 20 -5 10 -16 12 -88 2 -82 -4 2 -10 1 -13
-4 -3 -5 20 -10 50 -11 30 -1 54 2 53 6 -1 4 0 10 1 13 7 19 7 39 -1 34 -5 -3
-6 -11 -3 -17 4 -7 3 -8 -1 -4 -5 4 -11 20 -13 34 -3 24 -2 25 15 12 16 -13
17 -12 5 3 -9 11 -10 18 -2 23 5 3 10 0 11 -7 1 -16 6 -44 14 -75 9 -38 26
-26 23 16 -2 21 -6 37 -10 34 -5 -2 -8 2 -9 9 0 7 -3 22 -5 33 -3 11 -6 32 -8
48 -2 15 -7 31 -11 35 -5 4 -5 1 -1 -5 9 -16 -5 -17 -22 -3 -6 6 -10 7 -7 4 3
-4 0 -13 -6 -20 -7 -8 -6 -14 2 -20 7 -4 9 -3 5 4 -3 6 -2 13 4 17 5 3 10 1
10 -4 0 -21 2 -26 12 -38 10 -12 4 -17 -15 -14 -5 1 -6 -3 -2 -9 3 -5 2 -10
-4 -10 -5 0 -13 15 -17 32 -4 18 -9 35 -10 38 0 3 -5 20 -9 38 -11 47 -25 50
-26 5 -3 -89 -4 -96 -21 -99 -23 -3 -27 37 -11 127 12 74 12 74 -15 112 -15
21 -56 79 -91 130 -35 51 -61 85 -58 76z"/>
<path d="M2001 377 c-6 -16 -11 -35 -11 -42 0 -14 38 -85 46 -85 11 0 2 118
-10 136 -14 18 -15 18 -25 -9z"/>
<path d="M2216 269 c-9 -77 -9 -166 -1 -222 9 -58 18 -53 21 11 2 26 8 74 13
107 9 52 8 68 -8 109 l-18 49 -7 -54z"/>
<path d="M2081 216 c-8 -10 -9 -16 -1 -21 6 -3 8 -10 5 -15 -3 -4 2 -13 10
-20 17 -14 21 -45 5 -35 -6 4 -7 12 -3 18 4 8 1 7 -9 -1 -16 -13 -18 -35 -4
-49 4 -4 7 -3 6 2 -5 22 1 27 15 15 8 -7 16 -10 16 -6 1 3 2 12 3 19 1 6 8 11
15 9 7 -1 10 2 6 8 -3 6 -11 8 -16 4 -7 -4 -9 6 -6 25 3 18 1 29 -4 25 -5 -3
-6 -10 -3 -16 4 -7 2 -8 -5 -4 -6 4 -9 11 -6 16 3 5 1 11 -5 15 -6 4 -8 11 -5
16 9 14 -1 11 -14 -5z"/>
<path d="M2287 133 c-3 -5 -8 -36 -12 -70 -7 -63 -6 -63 19 -63 30 0 30 0 11
65 -9 27 -13 55 -11 62 6 14 0 18 -7 6z"/>
<path d="M2106 71 c-13 -14 -14 -21 -5 -27 7 -4 10 -3 6 3 -8 13 17 36 28 25
5 -4 5 -1 1 6 -9 16 -10 15 -30 -7z"/>
<path d="M2185 71 c-3 -5 -2 -12 3 -15 5 -3 9 1 9 9 0 17 -3 19 -12 6z"/>
<path d="M1935 51 c-3 -5 -2 -12 3 -15 5 -3 9 1 9 9 0 17 -3 19 -12 6z"/>
<path d="M2120 36 c0 -11 -5 -15 -12 -10 -8 4 -10 3 -5 -2 5 -5 13 -10 18 -10
5 -1 12 -3 17 -4 4 -2 21 -4 39 -5 23 -1 29 2 23 10 -6 7 -8 14 -5 17 3 3 -7
4 -22 3 -16 -1 -34 2 -40 8 -9 7 -13 5 -13 -7z m64 -17 c3 -3 -4 -5 -14 -6
-11 -1 -20 2 -20 7 0 8 25 8 34 -1z"/>
</g>
</svg>
