<?xml version="1.0" standalone="no"?>
<!DOCTYPE svg PUBLIC "-//W3C//DTD SVG 20010904//EN"
 "http://www.w3.org/TR/2001/REC-SVG-20010904/DTD/svg10.dtd">
<svg version="1.0" xmlns="http://www.w3.org/2000/svg"
 width="1000.000000pt" height="1080.000000pt" viewBox="0 0 1000.000000 1080.000000"
 preserveAspectRatio="xMidYMid meet">

<g transform="translate(0.000000,1080.000000) scale(0.100000,-0.100000)"
fill="#000000" stroke="none">
<path d="M0 5400 l0 -5400 5000 0 5000 0 0 5400 0 5400 -5000 0 -5000 0 0
-5400z m5697 2930 c-3 -28 -24 -94 -45 -148 l-39 -97 296 -3 297 -2 -1 -118
c0 -91 4 -124 17 -147 l16 -30 349 3 c386 4 386 4 386 -58 0 -55 -16 -60 -203
-60 -92 0 -169 -3 -173 -6 -3 -3 -1 -18 4 -33 6 -14 11 -52 12 -83 l2 -58 148
0 c119 0 147 -3 147 -14 0 -8 -25 -87 -55 -177 -30 -90 -55 -179 -55 -198 1
-48 30 -110 86 -182 l47 -59 344 0 343 0 36 -33 c47 -43 57 -113 24 -165 -31
-50 -71 -62 -210 -62 l-120 0 0 -280 0 -279 -32 -36 c-17 -20 -54 -50 -82 -66
-50 -28 -53 -29 -204 -29 -138 0 -157 -2 -182 -20 -84 -60 -53 -166 98 -335
50 -56 102 -156 102 -197 0 -43 -18 -80 -63 -125 l-41 -43 255 0 c285 0 299
-3 299 -62 0 -60 -18 -68 -161 -68 l-128 0 -6 -32 c-3 -18 -10 -64 -16 -103
-5 -38 -26 -130 -45 -203 -25 -97 -34 -154 -34 -213 l0 -79 -150 0 c-82 0
-150 -1 -150 -3 0 -1 23 -64 50 -140 28 -76 50 -144 50 -152 0 -13 -30 -15
-195 -14 -160 0 -195 3 -195 15 0 7 -23 77 -51 154 l-52 140 -258 0 c-143 0
-259 -3 -259 -6 0 -3 22 -67 49 -142 27 -75 53 -171 59 -213 7 -42 20 -98 29
-123 l18 -47 90 -2 c128 -3 178 -40 178 -133 0 -76 -63 -134 -148 -134 l-40 0
3 -210 3 -210 -195 0 -195 0 -3 153 -3 152 -107 3 -108 3 0 -155 0 -156 -195
0 -194 0 -3 153 -3 152 -107 3 -108 3 0 -155 0 -156 -195 0 -195 0 0 149 c0
127 -2 150 -16 155 -9 3 -58 6 -110 6 l-94 0 0 -155 0 -155 -195 0 -195 0 0
218 c0 247 -9 307 -65 433 -38 88 -64 182 -65 239 -1 19 -25 100 -54 180 l-54
145 -261 3 c-144 1 -261 0 -261 -2 0 -3 20 -59 45 -126 25 -67 48 -135 52
-151 l6 -30 -192 1 c-188 2 -192 2 -200 23 -4 12 -29 82 -56 155 l-48 132
-155 0 -155 0 6 103 c4 67 17 139 37 212 17 61 37 157 46 215 8 58 22 131 31
163 l16 57 151 0 152 0 46 48 c77 78 85 125 38 218 -16 32 -55 88 -86 123 -71
82 -99 124 -119 181 -19 53 -13 90 22 130 l25 30 -144 0 -143 0 52 31 c72 42
110 88 118 144 4 25 5 163 3 308 -5 289 -12 324 -78 416 -17 22 -30 43 -30 46
0 3 66 5 146 5 l145 0 -45 58 c-55 69 -85 135 -86 182 0 20 26 114 58 210 l59
175 153 3 153 3 -5 72 c-4 50 -14 94 -36 145 l-31 72 149 0 c83 0 150 2 150 4
0 2 -7 21 -17 42 -19 45 -22 184 -5 227 l12 27 302 0 303 0 38 98 c20 53 42
121 48 150 l11 52 800 0 801 0 -6 -50z m421 24 c27 -18 30 -69 5 -96 -12 -13
-31 -18 -75 -18 -66 0 -98 21 -98 65 0 42 33 65 93 65 31 0 61 -6 75 -16z
m1164 -1171 c22 -20 23 -61 1 -85 -12 -14 -31 -18 -77 -18 -67 0 -77 4 -95 37
-9 18 -9 29 4 53 15 29 18 30 82 30 48 0 72 -5 85 -17z m35 -1495 c29 -27 29
-55 1 -85 -18 -19 -32 -23 -79 -23 -50 0 -60 3 -78 26 -12 15 -21 32 -21 39 0
7 9 24 21 39 18 23 28 26 77 26 43 0 61 -5 79 -22z m460 -520 c28 -26 30 -61
3 -88 -15 -15 -33 -20 -77 -20 -64 0 -75 5 -92 37 -16 31 -14 41 14 68 33 34
117 36 152 3z m-1159 -1634 c15 -10 22 -25 22 -49 0 -45 -29 -65 -95 -65 -63
0 -95 20 -95 61 0 46 31 69 93 69 31 0 61 -6 75 -16z m-4426 -3011 c23 -20 23
-57 1 -74 -15 -11 -16 -11 -5 1 27 31 11 72 -33 83 -19 4 -19 5 -1 6 11 0 28
-6 38 -16z m-69 -8 c-3 -9 -8 -14 -10 -11 -3 3 -2 9 2 15 9 16 15 13 8 -4z
m-1760 -114 c22 -61 43 -108 47 -104 4 4 24 56 45 116 21 59 42 107 47 107 11
0 9 -5 -42 -149 -23 -64 -44 -107 -53 -109 -15 -3 -17 0 -67 143 -15 44 -31
88 -36 99 -5 13 -3 17 6 14 8 -2 32 -55 53 -117z m517 89 c0 -23 4 -30 20 -30
11 0 20 -4 20 -10 0 -5 -10 -10 -21 -10 -20 0 -21 -4 -17 -71 3 -55 8 -74 23
-85 23 -17 14 -29 -13 -15 -11 6 -22 25 -26 42 -10 51 -7 209 4 209 6 0 10
-13 10 -30z m515 16 c25 -11 33 -19 29 -30 -7 -19 -5 -19 -40 -1 -36 18 -55
19 -78 2 -28 -21 -9 -45 49 -62 87 -25 108 -74 54 -127 -29 -29 -33 -30 -90
-25 -68 6 -72 8 -64 29 5 13 12 14 40 5 50 -15 100 1 100 33 0 16 -8 28 -25
36 -87 40 -105 51 -108 67 -14 70 53 106 133 73z m105 -16 c0 -25 4 -30 25
-30 16 0 25 -6 25 -15 0 -9 -9 -15 -25 -15 -24 0 -25 -3 -25 -60 0 -55 2 -62
25 -72 14 -6 25 -15 25 -20 0 -18 -31 -20 -55 -4 -24 16 -25 20 -25 131 0 96
3 115 15 115 10 0 15 -10 15 -30z m482 -32 l3 -62 36 32 c20 18 45 32 55 32
14 0 9 -9 -21 -40 l-39 -40 42 -60 c40 -57 41 -60 20 -60 -16 0 -32 14 -53 45
-16 25 -33 45 -37 45 -5 0 -8 -20 -8 -45 0 -38 -3 -45 -20 -45 -19 0 -20 7
-20 130 0 122 1 130 20 130 16 0 19 -8 22 -62z m193 30 c1 -20 -2 -24 -11 -17
-8 7 -14 6 -17 -3 -3 -7 -6 2 -6 20 -1 27 3 33 17 30 11 -2 17 -13 17 -30z
m-44 -35 c13 -16 12 -17 -3 -4 -17 13 -22 21 -14 21 2 0 10 -8 17 -17z m-1502
-19 c12 -15 21 -40 21 -55 0 -29 0 -29 -65 -29 -72 0 -83 -12 -44 -51 17 -17
30 -20 65 -16 43 4 59 -5 28 -17 -45 -17 -106 3 -123 41 -45 98 56 206 118
127z m191 16 c17 -11 10 -13 -40 -10 -47 2 -75 -28 -75 -80 0 -55 26 -80 82
-80 27 0 42 -4 38 -10 -9 -15 -78 -12 -102 5 -50 35 -50 135 0 170 24 17 74
20 97 5z m265 -13 c20 -16 28 -35 32 -69 5 -42 3 -50 -25 -78 -41 -41 -83 -41
-124 0 -28 28 -30 36 -25 78 9 82 84 119 142 69z m85 7 c0 -14 2 -14 22 0 24
17 38 20 38 9 0 -5 -14 -16 -30 -25 -29 -17 -30 -19 -30 -93 0 -43 -4 -75 -10
-75 -6 0 -10 40 -10 100 0 60 4 100 10 100 6 0 10 -7 10 -16z m537 1 c30 -21
44 -75 32 -120 -25 -88 -143 -88 -168 0 -20 72 20 135 84 135 17 0 40 -7 52
-15z m198 -5 c0 -10 -8 -14 -27 -12 -58 6 -91 -42 -67 -100 11 -28 36 -40 74
-35 12 1 20 -4 20 -13 0 -19 -48 -25 -85 -10 -63 26 -68 148 -6 179 31 15 91
9 91 -9z m5364 -83 c8 -26 17 -47 21 -47 4 0 13 21 21 47 8 25 20 48 26 50 13
5 -22 -113 -38 -131 -12 -14 -18 -5 -45 69 -16 44 -20 65 -12 63 7 -3 19 -26
27 -51z m638 38 c2 -6 -9 -11 -23 -10 -39 0 -42 -23 -5 -36 34 -12 49 -43 31
-64 -13 -16 -38 -19 -64 -9 -27 10 -18 22 17 20 38 -1 43 19 8 37 -36 18 -48
42 -31 62 14 17 61 17 67 0z m333 -20 c0 -35 16 -47 26 -20 4 8 13 15 22 15
13 0 13 -3 -2 -19 -16 -18 -16 -21 -1 -50 19 -38 8 -40 -22 -3 l-22 27 -1 -27
c0 -16 -4 -28 -10 -28 -6 0 -10 30 -10 70 0 40 4 70 10 70 6 0 10 -16 10 -35z
m580 32 c0 -4 -34 -104 -45 -136 -3 -8 -8 -11 -11 -8 -8 7 38 147 48 147 4 0
8 -2 8 -3z m98 -9 c21 -21 13 -45 -25 -77 l-38 -30 43 -1 c23 0 42 -4 42 -10
0 -5 -22 -10 -50 -10 -62 0 -65 15 -14 63 42 40 39 62 -8 53 -26 -5 -29 -4
-18 9 15 18 51 20 68 3z m114 -40 c2 -29 2 -61 0 -70 -5 -22 -22 -24 -22 -3 0
10 -10 15 -30 15 -16 0 -30 3 -30 6 0 16 56 104 67 104 6 0 13 -22 15 -52z
m118 33 c-5 -11 -15 -23 -20 -26 -6 -4 -2 -14 11 -24 40 -32 1 -82 -51 -66
-31 10 -23 25 10 19 22 -5 31 -2 36 11 6 16 -3 28 -31 39 -6 2 -5 9 3 17 18
19 15 29 -8 29 -11 0 -20 5 -20 10 0 6 18 10 40 10 37 0 40 -2 30 -19z m110 9
c0 -5 -11 -10 -25 -10 -32 0 -32 -16 -1 -24 27 -7 41 -35 31 -65 -7 -23 -37
-35 -65 -26 -31 10 -24 23 13 21 28 -1 32 2 32 24 0 21 -4 25 -30 24 -29 -1
-30 0 -27 32 4 31 7 34 38 34 19 0 34 -4 34 -10z m112 -42 c2 -29 2 -61 0 -70
-5 -22 -22 -24 -22 -3 0 10 -10 15 -30 15 -16 0 -30 3 -30 6 0 16 56 104 67
104 6 0 13 -22 15 -52z m110 35 c39 -35 8 -122 -44 -123 -10 0 -18 5 -18 10 0
6 9 10 20 10 10 0 24 9 31 21 9 18 8 20 -9 15 -38 -12 -68 44 -40 72 17 17 38
15 60 -5z m116 5 c21 -21 13 -45 -25 -77 l-38 -30 43 -1 c23 0 42 -4 42 -10 0
-5 -22 -10 -50 -10 -62 0 -65 15 -14 63 42 40 39 62 -8 53 -26 -5 -29 -4 -18
9 15 18 51 20 68 3z m122 7 c0 -6 -60 -127 -66 -134 -2 -2 -7 -2 -10 1 -3 3 6
29 20 57 14 28 26 53 26 56 0 3 -13 5 -30 5 -16 0 -30 5 -30 10 0 6 20 10 45
10 25 0 45 -2 45 -5z m-2109 -53 c-15 -5 -14 -59 2 -65 6 -2 9 -7 6 -11 -15
-17 -37 8 -41 47 -6 59 0 72 24 50 11 -10 15 -19 9 -21z m359 13 c9 -10 9 -15
1 -15 -15 0 -14 -57 2 -63 6 -2 9 -8 4 -13 -19 -20 -43 38 -38 94 1 16 16 15
31 -3z m-532 -7 c23 -23 13 -38 -24 -38 -46 0 -41 -23 7 -30 27 -4 30 -7 16
-13 -28 -11 -44 -9 -61 9 -32 31 -14 84 29 84 12 0 26 -5 33 -12z m109 5 c14
-6 10 -9 -17 -13 -29 -4 -35 -9 -35 -30 0 -21 5 -26 33 -28 36 -4 34 -22 -3
-22 -28 0 -55 24 -55 50 0 22 25 50 45 50 7 0 22 -3 32 -7z m177 -9 c21 -20
20 -43 -1 -66 -20 -22 -46 -23 -67 -2 -31 30 -9 84 34 84 10 0 26 -7 34 -16z
m86 6 c0 -4 -7 -10 -15 -14 -9 -3 -15 -19 -15 -41 0 -19 -4 -35 -10 -35 -5 0
-10 22 -10 49 0 45 2 49 25 49 14 0 25 -4 25 -8z m274 -6 c21 -20 20 -43 -1
-66 -20 -22 -46 -23 -67 -2 -31 30 -9 84 34 84 10 0 26 -7 34 -16z m113 9 c14
-6 10 -9 -17 -13 -29 -4 -35 -9 -35 -30 0 -21 5 -26 33 -28 36 -4 34 -22 -3
-22 -28 0 -55 24 -55 50 0 22 25 50 45 50 7 0 22 -3 32 -7z m250 0 c14 -6 10
-9 -17 -13 -29 -4 -35 -9 -35 -30 0 -21 5 -26 33 -28 36 -4 34 -22 -3 -22 -28
0 -55 24 -55 50 0 22 25 50 45 50 7 0 22 -3 32 -7z m107 -9 c21 -20 20 -43 -1
-66 -20 -22 -46 -23 -67 -2 -31 30 -9 84 34 84 10 0 26 -7 34 -16z m116 4 c0
-9 3 -9 12 0 17 17 45 15 52 -4 10 -25 7 -84 -4 -84 -5 0 -10 18 -10 41 0 33
-3 40 -17 37 -13 -2 -19 -14 -21 -41 -4 -50 -22 -47 -22 4 0 36 -2 40 -22 37
-19 -2 -24 -10 -26 -40 -5 -55 -22 -46 -22 10 l0 49 40 1 c25 1 40 -3 40 -10z
m-330 -78 c0 -5 -4 -10 -10 -10 -5 0 -10 5 -10 10 0 6 5 10 10 10 6 0 10 -4
10 -10z"/>
<path d="M5638 5913 c7 -3 16 -2 19 1 4 3 -2 6 -13 5 -11 0 -14 -3 -6 -6z"/>
<path d="M3530 5644 c0 -3 28 -37 61 -76 73 -85 109 -156 109 -218 0 -49 -26
-102 -59 -119 -45 -25 -69 -92 -96 -272 -9 -57 -18 -112 -21 -121 -5 -17 19
-18 405 -18 257 0 412 4 416 10 3 5 17 74 30 153 28 169 35 186 96 253 55 59
68 104 49 167 -14 49 -62 122 -125 191 l-44 50 -411 3 c-225 1 -410 0 -410 -3z
m570 -409 c24 -22 26 -62 3 -87 -12 -14 -31 -18 -77 -18 -67 0 -77 4 -95 37
-15 28 1 70 31 83 34 15 115 6 138 -15z"/>
<path d="M5610 5630 c0 -8 -7 -26 -16 -38 -13 -19 -24 -22 -90 -22 -41 0 -74
-3 -74 -6 0 -4 18 -33 40 -66 77 -116 77 -181 -1 -264 -33 -34 -56 -69 -65
-101 -12 -38 -53 -275 -54 -305 0 -5 184 -8 409 -8 226 0 412 3 414 8 3 4 13
59 22 122 26 182 41 225 96 280 54 54 64 79 57 148 -5 55 -48 126 -126 212
l-49 55 -282 1 c-251 0 -281 -1 -281 -16z m295 -410 c24 -27 22 -70 -5 -92
-38 -31 -138 -21 -162 16 -14 20 -8 56 12 76 28 28 129 29 155 0z"/>
<path d="M4736 4812 c-20 -33 -60 -228 -60 -299 l-1 -83 -147 0 c-82 0 -148
-4 -148 -8 0 -4 21 -64 46 -132 25 -68 52 -164 60 -214 8 -49 29 -126 47 -170
l32 -81 108 -3 c59 -1 107 0 107 2 0 3 -13 38 -29 78 -28 72 -51 160 -51 198
0 19 8 20 194 20 l194 0 6 -47 c8 -58 20 -97 53 -185 l26 -68 110 0 c100 0
109 1 102 18 -39 95 -66 183 -74 244 -5 43 -30 129 -59 208 l-50 135 -151 3
-151 3 -6 25 c-10 40 3 149 31 252 14 51 25 98 25 103 0 11 -207 12 -214 1z"/>
<path d="M2150 500 c0 -5 5 -10 10 -10 6 0 10 5 10 10 0 6 -4 10 -10 10 -5 0
-10 -4 -10 -10z"/>
<path d="M536 418 c-28 -39 -21 -48 39 -48 59 0 67 9 45 51 -15 27 -64 25 -84
-3z"/>
<path d="M986 424 c-50 -50 -21 -144 44 -144 48 0 80 50 66 104 -13 53 -75 75
-110 40z"/>
<path d="M1616 408 c-32 -46 -8 -118 39 -118 28 0 55 34 55 70 0 36 -27 70
-55 70 -13 0 -31 -10 -39 -22z"/>
<path d="M8987 350 c-18 -29 -18 -30 2 -30 17 0 21 6 21 30 0 17 -1 30 -3 30
-1 0 -11 -13 -20 -30z"/>
<path d="M9327 350 c-18 -29 -18 -30 2 -30 17 0 21 6 21 30 0 17 -1 30 -3 30
-1 0 -11 -13 -20 -30z"/>
<path d="M9434 375 c-7 -18 3 -35 21 -35 18 0 26 15 19 34 -8 20 -33 21 -40 1z"/>
<path d="M7385 340 c-4 -6 5 -10 19 -10 14 0 26 5 26 10 0 6 -9 10 -19 10 -11
0 -23 -4 -26 -10z"/>
<path d="M7664 336 c-10 -26 4 -48 28 -44 17 2 23 10 23 28 0 18 -6 26 -23 28
-13 2 -25 -3 -28 -12z"/>
<path d="M8024 336 c-10 -26 4 -48 28 -44 17 2 23 10 23 28 0 18 -6 26 -23 28
-13 2 -25 -3 -28 -12z"/>
<path d="M8494 336 c-10 -26 4 -48 28 -44 17 2 23 10 23 28 0 18 -6 26 -23 28
-13 2 -25 -3 -28 -12z"/>
</g>
</svg>
